<svg width="18" height="18" viewBox="0 0 18 18" fill="none" xmlns="http://www.w3.org/2000/svg">
<path d="M12 11.7V5.99999C12 5.78749 12.072 5.60925 12.216 5.46525C12.36 5.32125 12.538 5.24949 12.75 5.24999C12.9625 5.24999 13.1407 5.32199 13.2847 5.46599C13.4287 5.60999 13.5005 5.78799 13.5 5.99999V13.5C13.5 13.7125 13.428 13.8907 13.284 14.0347C13.14 14.1787 12.962 14.2505 12.75 14.25H5.24999C5.03749 14.25 4.85925 14.178 4.71525 14.034C4.57125 13.89 4.49949 13.712 4.49999 13.5C4.49999 13.2875 4.57199 13.1092 4.71599 12.9652C4.85999 12.8212 5.03799 12.7495 5.24999 12.75H10.95L4.27499 6.075C4.1375 5.9375 4.06874 5.76249 4.06874 5.54999C4.06874 5.33749 4.1375 5.16249 4.27499 5.02499C4.41249 4.8875 4.58749 4.81874 4.79999 4.81874C5.01249 4.81874 5.1875 4.8875 5.325 5.02499L12 11.7Z" fill="black"/>
</svg>
