<svg width="172" height="172" viewBox="0 0 172 172" fill="none" xmlns="http://www.w3.org/2000/svg">
<path d="M35.832 100.333C35.832 102.234 36.5871 104.057 37.9311 105.401C39.2751 106.745 41.098 107.5 42.9987 107.5C44.8994 107.5 46.7223 106.745 48.0663 105.401C49.4103 104.057 50.1654 102.234 50.1654 100.333C50.1654 98.4326 49.4103 96.6097 48.0663 95.2657C46.7223 93.9217 44.8994 93.1667 42.9987 93.1667C41.098 93.1667 39.2751 93.9217 37.9311 95.2657C36.5871 96.6097 35.832 98.4326 35.832 100.333ZM78.832 86C78.832 87.9007 79.5871 89.7236 80.9311 91.0676C82.2751 92.4116 84.098 93.1667 85.9987 93.1667C87.8994 93.1667 89.7223 92.4116 91.0663 91.0676C92.4103 89.7236 93.1654 87.9007 93.1654 86C93.1654 84.0993 92.4103 82.2764 91.0663 80.9324C89.7223 79.5884 87.8994 78.8333 85.9987 78.8333C84.098 78.8333 82.2751 79.5884 80.9311 80.9324C79.5871 82.2764 78.832 84.0993 78.832 86ZM121.832 71.6667C121.832 73.5674 122.587 75.3903 123.931 76.7343C125.275 78.0783 127.098 78.8333 128.999 78.8333C130.899 78.8333 132.722 78.0783 134.066 76.7343C135.41 75.3903 136.165 73.5674 136.165 71.6667C136.165 69.7659 135.41 67.9431 134.066 66.5991C132.722 65.2551 130.899 64.5 128.999 64.5C127.098 64.5 125.275 65.2551 123.931 66.5991C122.587 67.9431 121.832 69.7659 121.832 71.6667Z" stroke="black" stroke-width="14.3333" stroke-linecap="round" stroke-linejoin="round"/>
</svg>
