<svg width="86" height="86" viewBox="0 0 86 86" fill="none" xmlns="http://www.w3.org/2000/svg">
<path d="M26.518 35.8333H32.2155V53.7499C32.2155 55.7208 33.828 57.3333 35.7988 57.3333H50.1321C52.103 57.3333 53.7155 55.7208 53.7155 53.7499V35.8333H59.413C62.6021 35.8333 64.2146 31.9633 61.9571 29.7058L45.5096 13.2583C45.1781 12.9261 44.7844 12.6625 44.3509 12.4827C43.9174 12.3029 43.4527 12.2103 42.9834 12.2103C42.5141 12.2103 42.0494 12.3029 41.6159 12.4827C41.1824 12.6625 40.7886 12.9261 40.4571 13.2583L24.0096 29.7058C21.7521 31.9633 23.3288 35.8333 26.518 35.8333ZM17.918 68.0833C17.918 70.0541 19.5305 71.6666 21.5013 71.6666H64.5013C66.4721 71.6666 68.0846 70.0541 68.0846 68.0833C68.0846 66.1124 66.4721 64.4999 64.5013 64.4999H21.5013C19.5305 64.4999 17.918 66.1124 17.918 68.0833Z" fill="black"/>
</svg>
