<svg width="14" height="14" viewBox="0 0 14 14" fill="none" xmlns="http://www.w3.org/2000/svg">
<path d="M5.83179 9.33333H2.91512V12.25M8.16512 4.66667H11.0818V1.75M2.67188 5.25175C2.99901 4.44234 3.54662 3.74093 4.25249 3.22721C4.95836 2.7135 5.79418 2.40809 6.66496 2.34569C7.53574 2.28328 8.40657 2.46639 9.17847 2.8742C9.95038 3.28202 10.5924 3.89818 11.0316 4.65267M11.3256 8.74825C10.9986 9.55781 10.4509 10.2594 9.74502 10.7732C9.03909 11.287 8.20317 11.5925 7.33228 11.6549C6.46138 11.7173 5.59045 11.5341 4.81847 11.1262C4.0465 10.7183 3.40444 10.102 2.96529 9.34733" stroke="black" stroke-width="1.16667" stroke-linecap="round" stroke-linejoin="round"/>
</svg>
